<svg version="1.1" id="Layer_1" xmlns="http://www.w3.org/2000/svg" xmlns:xlink="http://www.w3.org/1999/xlink" x="0px" y="0px"
	 width="100%" viewBox="0 0 220 176" enable-background="new 0 0 220 176" xml:space="preserve">
<path fill="#FEFFFF" opacity="1.000000" stroke="none" 
	d="
M156.000000,177.000000 
	C104.000000,177.000000 52.500008,177.000000 1.000007,177.000000 
	C1.000005,118.333344 1.000005,59.666679 1.000002,1.000015 
	C74.333321,1.000010 147.666641,1.000010 220.999969,1.000005 
	C220.999985,59.666653 220.999985,118.333305 221.000000,176.999969 
	C199.500000,177.000000 178.000000,177.000000 156.000000,177.000000 
M139.191055,46.923378 
	C137.906128,33.711765 130.843552,23.662846 120.412773,16.489357 
	C93.349205,-2.122872 56.484863,15.177022 52.843349,47.818726 
	C52.507763,50.826847 51.845360,52.595680 47.989754,53.208210 
	C24.142385,56.996754 11.065484,83.440178 22.438015,104.750328 
	C29.960747,118.846619 42.346401,124.574165 57.992676,124.943306 
	C58.023998,142.903885 67.192924,155.646027 84.577621,161.521011 
	C86.327827,161.928146 88.077202,162.686127 89.828362,162.690292 
	C120.864761,162.764114 151.901489,162.777893 182.937698,162.675568 
	C184.966522,162.668884 186.991882,161.620743 189.567841,160.989258 
	C190.058197,160.742294 190.548538,160.495316 191.530533,160.212738 
	C191.530533,160.212738 192.000198,160.063095 192.716888,159.984116 
	C210.028870,152.122833 218.204086,135.606155 213.018738,117.435036 
	C209.133835,103.821091 199.769943,95.599556 185.753830,92.761848 
	C182.988007,92.201859 179.213226,93.058083 179.108627,88.020164 
	C178.725204,69.549919 163.436707,49.911449 139.191055,46.923378 
z"/>
<path fill="#68BCE8" opacity="1.000000" stroke="none" 
	d="
M83.981827,161.060684 
	C67.192924,155.646027 58.023998,142.903885 58.047966,124.100998 
	C58.190784,122.938179 58.299664,122.621819 58.362755,122.296570 
	C61.655296,105.323349 71.355049,94.811630 88.724838,91.708260 
	C90.021072,91.476669 91.690552,89.183556 91.900482,87.670380 
	C93.804474,73.945930 99.949471,62.933250 111.477631,54.964108 
	C119.940331,49.114040 129.347061,47.335560 139.369843,47.708515 
	C163.436707,49.911449 178.725204,69.549919 179.108627,88.020164 
	C179.213226,93.058083 182.988007,92.201859 185.753830,92.761848 
	C199.769943,95.599556 209.133835,103.821091 213.018738,117.435036 
	C218.204086,135.606155 210.028870,152.122833 192.257477,159.848907 
	C191.544998,159.891891 191.291946,160.070114 191.038895,160.248337 
	C190.548538,160.495316 190.058197,160.742294 189.081451,160.759232 
	C186.914703,160.791275 185.233932,161.283951 183.554001,161.281143 
	C154.160538,161.232132 124.767159,161.119888 95.373749,161.029205 
	C91.576508,161.017487 87.779137,161.049133 83.981827,161.060684 
z"/>
<path fill="#95D0EA" opacity="1.000000" stroke="none" 
	d="
M139.280457,47.315948 
	C129.347061,47.335560 119.940331,49.114040 111.477631,54.964108 
	C99.949471,62.933250 93.804474,73.945930 91.900482,87.670380 
	C91.690552,89.183556 90.021072,91.476669 88.724838,91.708260 
	C71.355049,94.811630 61.655296,105.323349 58.362755,122.296570 
	C58.299664,122.621819 58.190784,122.938179 58.038120,123.649460 
	C42.346401,124.574165 29.960747,118.846619 22.438015,104.750328 
	C11.065484,83.440178 24.142385,56.996754 47.989754,53.208210 
	C51.845360,52.595680 52.507763,50.826847 52.843349,47.818726 
	C56.484863,15.177022 93.349205,-2.122872 120.412773,16.489357 
	C130.843552,23.662846 137.906128,33.711765 139.280457,47.315948 
z"/>
<path fill="#7DC7EB" opacity="1.000000" stroke="none" 
	d="
M84.279724,161.290848 
	C87.779137,161.049133 91.576508,161.017487 95.373749,161.029205 
	C124.767159,161.119888 154.160538,161.232132 183.554001,161.281143 
	C185.233932,161.283951 186.914703,160.791275 188.806976,160.793121 
	C186.991882,161.620743 184.966522,162.668884 182.937698,162.675568 
	C151.901489,162.777893 120.864761,162.764114 89.828362,162.690292 
	C88.077202,162.686127 86.327827,161.928146 84.279724,161.290848 
z"/>
<path fill="#7DC7EB" opacity="1.000000" stroke="none" 
	d="
M191.284714,160.230530 
	C191.291946,160.070114 191.544998,159.891891 191.899139,159.888397 
	C192.000198,160.063095 191.530533,160.212738 191.284714,160.230530 
z"/>
</svg>