<svg version="1.1" id="Layer_1" xmlns="http://www.w3.org/2000/svg" xmlns:xlink="http://www.w3.org/1999/xlink" x="0px" y="0px"
	 width="100%" viewBox="0 0 596 546" enable-background="new 0 0 596 546" xml:space="preserve">
<path fill="#FEFFFF" opacity="1.000000" stroke="none" 
	d="
M349.000000,547.000000 
	C232.692001,547.000000 116.884010,547.000000 1.038008,547.000000 
	C1.038008,365.065155 1.038008,183.130310 1.038008,1.097726 
	C199.558029,1.097726 398.116119,1.097726 596.837097,1.097726 
	C596.837097,182.999878 596.837097,364.999939 596.837097,547.000000 
	C514.463562,547.000000 431.981781,547.000000 349.000000,547.000000 
M536.743835,523.028748 
	C537.856628,522.367310 538.969360,521.705872 540.629578,520.787292 
	C541.410217,520.144287 542.190918,519.501343 543.666016,518.859924 
	C547.394775,515.200378 551.123535,511.540863 555.043396,507.541473 
	C555.043396,507.541473 555.219788,507.193726 555.920654,507.136627 
	C557.113647,505.660583 558.306641,504.184570 559.874146,502.280640 
	C560.151917,502.023041 560.429626,501.765442 561.414490,501.729187 
	C561.889587,500.790314 562.364685,499.851410 563.266296,498.409424 
	C564.163940,497.257385 565.061584,496.105347 566.666992,494.957397 
	C570.373779,489.626617 574.701843,484.614685 577.639526,478.889282 
	C581.895203,470.595245 585.412231,461.885376 588.691528,453.145477 
	C589.982361,449.704987 589.784546,445.705933 590.220642,441.293274 
	C590.137695,440.856750 590.054749,440.420227 590.024963,440.101013 
	C590.024963,440.101013 590.153442,440.109802 590.856506,439.882965 
	C592.052124,432.976776 594.697937,425.946259 594.118835,419.192230 
	C593.139648,407.771393 590.639709,396.392426 587.784790,385.250671 
	C585.734497,377.249054 582.988464,369.133820 578.911926,362.007996 
	C571.848267,349.660828 562.665527,338.830566 552.429382,328.756714 
	C538.660400,315.206085 521.945496,307.100525 504.086975,301.397522 
	C495.101440,298.528046 485.248962,298.240417 475.743225,297.197937 
	C471.915344,296.778076 470.334106,295.492554 469.761963,291.541351 
	C468.320435,281.586121 469.188080,271.558014 466.401123,261.516174 
	C462.644165,247.979248 458.349365,234.881470 452.252228,222.203171 
	C446.422821,210.081558 438.656616,199.445923 429.264923,190.148254 
	C420.837585,181.805298 411.505066,174.330826 402.222931,166.909668 
	C392.377960,159.038483 380.647369,154.597656 369.086395,149.907059 
	C364.468140,148.033340 360.047455,145.672668 355.222229,142.767456 
	C346.872498,120.119820 334.391785,99.935974 317.742676,82.563484 
	C285.379852,48.794609 246.041168,29.444069 199.067215,25.753271 
	C177.218231,24.036570 155.861755,25.964123 134.942383,32.016220 
	C100.160347,42.078869 70.646088,60.700005 47.132824,88.347260 
	C12.490011,129.080811 -1.482323,176.381180 4.349249,229.278152 
	C7.745243,260.082520 19.072884,288.223083 37.345608,313.342377 
	C46.160126,325.459564 55.732212,336.984680 68.161613,346.369812 
	C68.216141,346.534668 68.270676,346.699524 67.942604,347.486572 
	C65.571487,351.125885 63.114819,354.713654 60.873718,358.431335 
	C60.043068,359.809235 59.718456,361.492157 59.025452,363.779297 
	C58.043640,365.551788 57.061829,367.324310 55.475201,369.043335 
	C55.400322,369.690552 55.325439,370.337738 55.133652,371.767761 
	C55.060287,372.820831 54.986923,373.873871 54.279648,375.059387 
	C53.466339,377.005432 52.653030,378.951508 51.726326,381.414276 
	C51.679718,381.584351 51.633114,381.754395 50.938725,382.230652 
	C49.779827,385.631775 48.513367,389.002747 47.544304,392.457123 
	C47.326042,393.235199 48.145111,394.304260 48.583923,395.632355 
	C48.583923,395.632355 48.831524,395.952667 48.606377,396.855194 
	C48.353359,401.205109 48.100342,405.555023 47.140083,410.117645 
	C45.414906,415.188599 43.939503,420.246155 47.989189,425.904388 
	C48.157471,431.268646 48.325752,436.632935 47.881313,442.138855 
	C49.191368,446.807465 50.501423,451.476074 51.897518,456.768311 
	C51.981194,457.179443 52.064869,457.590576 51.601559,458.293732 
	C52.666607,459.582733 53.731655,460.871765 54.879452,462.920319 
	C55.007576,463.930115 55.135700,464.939880 54.675365,466.292236 
	C56.051682,468.248016 57.427998,470.203766 58.881756,472.772919 
	C58.936245,473.181458 58.990734,473.589996 58.485401,474.374023 
	C61.613140,479.288177 64.740875,484.202362 67.946381,489.815094 
	C69.616364,491.619232 71.286339,493.423401 73.575935,495.461487 
	C74.881577,497.271057 76.025055,499.229889 77.525551,500.860107 
	C80.977440,504.610413 84.603020,508.200867 88.113037,512.545288 
	C88.803169,512.964050 89.493309,513.382812 90.559013,514.113770 
	C90.800087,514.333984 91.021149,514.572693 91.136505,515.538391 
	C93.386986,517.627625 95.541016,519.840698 97.954468,521.720703 
	C98.572693,522.202271 100.010399,521.631958 101.718117,521.525818 
	C103.127884,522.705200 104.537651,523.884521 106.097290,525.762512 
	C107.415199,526.146057 108.733109,526.529541 110.465454,527.467346 
	C112.791031,528.554504 115.116600,529.641602 117.262543,531.455383 
	C121.183762,532.887024 125.104980,534.318604 129.786758,535.906067 
	C130.818161,535.987549 131.849564,536.069031 133.058182,536.788330 
	C135.072311,538.497375 136.815109,541.077148 140.637161,539.039856 
	C141.048584,539.082947 141.460007,539.126099 142.113586,539.852905 
	C144.510925,539.752991 146.908264,539.653076 149.969482,539.502625 
	C150.851074,539.554504 151.732681,539.606323 152.866531,540.314087 
	C153.299667,540.785400 153.714050,541.648499 154.168686,541.670166 
	C163.445450,542.114197 172.726822,542.461975 182.938019,542.934265 
	C274.447815,542.954712 365.957642,542.976135 457.467438,542.984680 
	C458.626251,542.984802 459.785065,542.821045 461.485596,543.397522 
	C465.947510,543.501892 470.488281,544.159851 474.846893,543.539001 
	C478.469818,543.022949 481.878540,541.003357 486.040375,539.533691 
	C486.931335,539.526245 487.822266,539.518738 489.097290,540.119202 
	C495.068634,541.335510 500.477631,540.342468 505.507690,536.012512 
	C505.507690,536.012512 505.960815,535.929138 506.609314,536.112488 
	C507.056824,536.110413 507.504364,536.108337 508.484283,536.568909 
	C513.201111,534.942810 517.946411,533.391296 522.604736,531.612122 
	C523.322083,531.338135 523.639709,530.017456 524.867371,529.113159 
	C525.815857,528.924866 526.764404,528.736572 528.404663,528.793152 
	C530.028687,527.595703 531.652771,526.398254 533.850037,525.052979 
	C534.568176,524.386353 535.286316,523.719727 536.743835,523.028748 
z"/>
<path fill="#43BFED" opacity="1.000000" stroke="none" 
	d="
M152.614273,539.658203 
	C151.732681,539.606323 150.851074,539.554504 149.191101,539.361206 
	C146.232285,539.202942 144.051865,539.186035 141.871429,539.169189 
	C141.460007,539.126099 141.048584,539.082947 140.284760,538.624512 
	C137.581879,537.522888 135.231415,536.836731 132.880951,536.150513 
	C131.849564,536.069031 130.818161,535.987549 129.339935,535.480225 
	C125.076134,533.612488 121.259155,532.170593 117.442177,530.728760 
	C115.116600,529.641602 112.791031,528.554504 110.130714,526.861328 
	C108.513123,525.858215 107.230270,525.461060 105.947418,525.063904 
	C104.537651,523.884521 103.127884,522.705200 101.276611,521.156494 
	C97.630806,518.801392 94.426514,516.815613 91.222214,514.829895 
	C91.021149,514.572693 90.800087,514.333984 90.440720,513.749756 
	C90.322426,513.385742 90.502449,512.982666 90.816628,512.864929 
	C90.624268,510.846039 90.679916,508.436249 89.506073,507.138855 
	C85.944168,503.202087 81.785385,500.044342 79.039604,495.102203 
	C76.960312,491.359680 72.424088,488.982208 68.832626,485.718140 
	C67.798996,484.947449 66.913986,484.455872 65.892044,483.651733 
	C63.518486,480.225586 61.281857,477.112061 59.045227,473.998535 
	C58.990734,473.589996 58.936245,473.181458 58.940544,472.085571 
	C58.962025,470.620056 58.924721,469.841858 58.889297,468.721985 
	C57.940708,467.570892 56.990234,466.761475 55.845875,465.919373 
	C55.651989,465.886719 55.263828,465.949677 55.263828,465.949677 
	C55.135700,464.939880 55.007576,463.930115 54.939003,462.187592 
	C54.048550,460.303802 53.098545,459.152771 52.148544,458.001709 
	C52.064869,457.590576 51.981194,457.179443 51.954819,456.022614 
	C52.011635,453.516846 52.011143,451.756805 52.052464,449.669342 
	C51.763859,448.192596 51.433449,447.043213 51.043877,445.566254 
	C50.646515,444.207947 50.308315,443.177216 50.186428,441.811768 
	C50.808914,435.621948 51.250484,429.768433 51.506859,423.906769 
	C51.518513,423.640228 49.859203,423.300598 48.938221,422.574402 
	C48.758327,419.086395 48.618382,416.019043 48.870686,412.952759 
	C55.294403,409.973022 50.665333,404.641357 51.892574,400.563324 
	C52.416798,398.821350 52.810528,396.013672 49.320805,395.989380 
	C49.157635,395.988220 48.994614,395.965393 48.831524,395.952667 
	C48.831524,395.952667 48.583923,395.632355 48.818672,395.135681 
	C50.309982,391.257935 51.566536,387.876892 52.947235,384.553955 
	C53.071384,384.612091 53.204514,384.425110 53.204514,384.425110 
	C53.204514,384.425110 52.841175,384.415558 52.814590,384.028290 
	C52.798428,383.123688 52.808846,382.606354 52.890808,381.818420 
	C52.971249,381.362305 52.980152,381.176758 52.994526,380.995605 
	C53.000000,381.000000 52.991543,380.989136 53.311089,380.959839 
	C54.113892,379.951965 54.597149,378.973328 55.094585,377.609558 
	C55.043697,376.458588 54.978634,375.692749 54.913567,374.926941 
	C54.986923,373.873871 55.060287,372.820831 55.421238,371.222473 
	C55.832558,370.150391 55.956295,369.623596 56.080025,369.096802 
	C57.061829,367.324310 58.043640,365.551788 59.296696,363.470947 
	C59.567940,363.162567 59.993694,363.174255 60.208576,363.378143 
	C61.207035,362.685089 61.990608,361.788147 62.822266,360.578491 
	C62.915649,359.846558 62.960957,359.427277 63.344769,358.963074 
	C64.396187,357.915131 65.109100,356.912170 65.870117,355.604462 
	C65.967407,354.891479 66.016586,354.483185 66.397179,354.011169 
	C67.443535,352.941498 68.158485,351.935638 68.933014,350.566956 
	C69.123436,349.241821 69.254280,348.279510 69.675629,347.150452 
	C73.689713,342.032684 77.413284,337.081665 81.377945,332.053589 
	C81.790054,331.696655 81.961060,331.416718 82.408714,331.097046 
	C83.104309,330.693481 83.523262,330.329712 84.316971,329.983978 
	C85.666985,328.889496 86.642242,327.776978 87.814346,326.530701 
	C88.011200,326.396942 88.454002,326.222321 88.800423,326.418915 
	C89.628983,326.561310 90.224121,326.671265 90.576530,326.428650 
	C97.199677,321.868774 103.825195,317.310394 110.351845,312.614929 
	C111.097198,312.078705 111.255310,310.726257 111.917923,309.634308 
	C112.313370,309.457153 112.476593,309.397919 113.007629,309.511963 
	C114.822517,308.701874 116.269600,307.718475 117.981201,306.498474 
	C119.828392,305.830627 121.411064,305.399323 123.191498,305.229492 
	C124.961723,304.379181 126.534187,303.267456 128.464081,302.046631 
	C130.539062,301.645660 132.256607,301.353790 134.210541,301.322571 
	C136.921661,300.992188 139.396378,300.401123 141.945953,300.206177 
	C143.444809,301.398621 144.871658,302.873993 146.292282,302.868011 
	C151.185913,302.847412 156.087082,302.409363 160.966568,301.936310 
	C164.783066,301.566315 163.738510,299.759491 162.146210,297.626160 
	C166.720901,295.159607 167.505035,290.704498 167.705658,286.797760 
	C168.230148,276.584930 168.302002,266.390015 171.888000,256.608795 
	C174.771149,248.744629 177.484695,240.818405 180.295898,232.927704 
	C181.479874,229.604477 182.721436,226.301743 184.007660,222.680145 
	C184.401443,221.588989 184.724380,220.807373 185.390762,219.983948 
	C186.389114,218.884216 187.044022,217.826324 187.796844,216.449615 
	C188.261993,215.084869 188.629227,214.038925 189.349640,212.969284 
	C190.342941,211.874680 190.983063,210.803757 191.704895,209.459198 
	C191.903641,208.823227 192.020676,208.460892 192.497604,208.065674 
	C193.706833,206.900269 194.556168,205.767731 195.499405,204.350769 
	C195.702103,203.682037 195.810928,203.297760 196.277466,202.910858 
	C197.301971,201.851425 197.968781,200.794617 198.720825,199.464996 
	C198.929077,198.831451 199.052063,198.470734 199.509750,198.078079 
	C200.546387,197.349686 201.248352,196.653244 201.974701,195.977478 
	C201.999100,195.998169 201.956985,195.949753 202.308319,195.938446 
	C204.123230,193.963943 205.586838,192.000748 207.352539,189.906799 
	C209.453491,187.875015 211.252380,185.973969 213.410767,184.063263 
	C215.498276,182.345566 217.226318,180.637558 219.082733,178.736374 
	C219.403839,178.297409 219.630966,178.089142 220.253906,177.919861 
	C225.713837,174.418533 230.864624,170.988266 235.883072,167.374222 
	C237.685257,166.076370 239.168457,164.335602 241.063797,162.578247 
	C242.429230,162.043655 243.528076,161.727753 244.964676,161.558441 
	C247.592072,160.198700 249.881744,158.692383 252.487213,157.092499 
	C253.661041,156.921539 254.519073,156.844147 255.754974,156.954437 
	C260.693024,160.493988 263.212219,159.701920 263.904053,154.340942 
	C263.918091,153.262772 263.938995,152.540237 264.198730,151.701553 
	C264.920258,151.369537 265.402924,151.153687 266.341156,150.968994 
	C270.844543,150.284744 274.892303,149.569336 278.975037,149.279022 
	C279.705872,150.456497 280.427246,151.878448 281.093536,151.853104 
	C285.564270,151.682953 290.023315,151.205048 294.486176,150.826920 
	C294.470093,150.503021 294.454010,150.179108 294.437958,149.855209 
	C292.919891,149.146103 291.401825,148.436996 290.178101,147.485077 
	C295.634521,146.468384 300.796570,145.694519 305.989197,145.343552 
	C306.715790,146.501251 307.393951,147.852798 308.110718,147.873596 
	C314.006134,148.044556 319.913696,148.084686 325.803101,147.829422 
	C326.598724,147.794952 327.313690,145.899597 328.519257,144.852280 
	C333.140564,145.494110 337.294434,146.267639 341.480896,146.769653 
	C345.186981,147.214035 348.993774,147.027618 352.634003,147.741989 
	C355.272522,148.259781 357.640015,150.028442 360.254242,150.827377 
	C365.791962,152.519684 371.768890,153.194427 376.915680,155.649307 
	C384.890594,159.453140 392.423889,164.231537 399.961731,168.892212 
	C413.135284,177.037491 424.182953,187.632416 433.987732,199.532288 
	C436.027222,202.007523 437.461823,204.981094 439.126007,208.124039 
	C440.080627,209.333176 441.084412,210.143250 442.351746,211.165436 
	C446.829285,217.876373 452.112427,223.698090 453.691650,231.757904 
	C454.479584,235.779388 456.704712,239.504868 458.101990,243.427551 
	C458.779755,245.330307 459.048370,247.378784 459.502228,249.361267 
	C460.587402,252.698669 463.196320,255.802948 463.752686,259.239532 
	C465.069855,267.375275 465.412262,275.668823 465.764099,283.996155 
	C464.899384,287.564606 464.019043,291.051361 464.155914,294.497742 
	C464.203857,295.705811 466.751862,296.814636 468.544739,298.003021 
	C474.624207,299.365204 480.317139,300.693085 486.026978,302.423309 
	C488.424438,305.834106 497.138947,306.963470 499.920990,304.597565 
	C500.141449,304.410065 500.166107,303.992340 500.662445,303.719971 
	C502.519318,304.429260 503.980164,305.639221 505.474243,305.681793 
	C513.938965,305.922852 520.390320,311.449799 527.923523,314.103241 
	C530.414429,314.980682 532.209412,317.834076 533.948669,319.855255 
	C531.108521,320.195374 530.371460,321.141571 532.666382,322.787231 
	C537.710999,326.404572 543.151184,329.542053 547.842773,333.560730 
	C552.946594,337.932465 557.447266,343.021881 562.089172,347.913849 
	C564.526245,350.482178 566.703186,353.297455 568.997742,356.411743 
	C570.204712,360.173492 571.296021,363.576935 572.759521,366.811981 
	C572.949646,367.232208 575.059387,366.783997 576.625000,366.820068 
	C578.150085,368.609833 579.822266,370.160522 580.425781,372.052155 
	C583.157654,380.614624 585.587708,389.273407 588.121338,398.214050 
	C588.660767,399.070709 589.205322,399.610870 589.787598,400.606323 
	C589.889893,406.040680 589.954468,411.019745 589.760376,416.227844 
	C589.667786,419.637970 589.833923,422.818970 589.992859,426.464966 
	C590.041565,431.323242 590.097473,435.716522 590.153442,440.109802 
	C590.153442,440.109802 590.024963,440.101013 589.706299,440.061798 
	C589.259216,440.682526 589.130859,441.342468 588.990173,442.325104 
	C588.958252,443.077911 588.938599,443.507996 588.578125,444.015961 
	C587.882812,445.104797 587.528381,446.115784 587.137573,447.502350 
	C587.010986,448.880188 586.920837,449.882385 586.557861,450.950562 
	C586.187012,451.677673 586.088867,452.338867 585.975159,453.316895 
	C585.924927,454.055206 585.890137,454.476715 585.531555,454.985016 
	C584.542175,456.430176 583.876709,457.788574 583.166870,459.522339 
	C578.571045,468.948517 573.992798,477.985962 569.485291,487.058563 
	C568.203979,489.637512 567.128845,492.318878 565.959167,494.953308 
	C565.061584,496.105347 564.163940,497.257385 562.785095,498.781982 
	C561.771729,499.938995 561.239563,500.723419 560.707397,501.507843 
	C560.429626,501.765442 560.151917,502.023041 559.385315,502.593872 
	C557.670959,504.335999 556.445374,505.764862 555.219788,507.193726 
	C555.219788,507.193726 555.043396,507.541473 554.610229,507.738190 
	C552.462830,509.001190 550.748596,510.067474 548.692078,511.132019 
	C547.230042,512.418823 546.110229,513.707397 544.819458,515.222778 
	C544.087341,515.945862 543.526245,516.442078 542.606323,516.957153 
	C540.791260,518.291199 539.335083,519.606445 537.659302,520.935547 
	C537.439697,520.949402 537.000000,520.996887 536.637024,520.995667 
	C534.811035,522.305298 533.348022,523.616150 531.524170,524.939697 
	C530.013184,526.150940 528.863037,527.349609 527.712891,528.548279 
	C526.764404,528.736572 525.815857,528.924866 524.115845,529.047729 
	C519.596375,530.085938 515.828369,531.189453 511.707397,532.241333 
	C509.556580,533.436218 507.758698,534.682678 505.960815,535.929138 
	C505.960815,535.929138 505.507690,536.012512 504.881195,535.954285 
	C503.177490,535.906372 502.100311,535.916626 500.785950,535.692261 
	C498.283203,536.581177 496.017578,537.704773 493.327515,538.836914 
	C491.506439,539.067322 490.109833,539.289307 488.713226,539.511230 
	C487.822266,539.518738 486.931335,539.526245 485.273834,539.387878 
	C482.352051,539.246399 480.196808,539.250793 477.610168,539.179260 
	C471.820221,539.423279 466.461670,539.743164 460.713623,539.891052 
	C458.869293,539.478577 457.414520,539.028320 455.959595,539.027832 
	C366.085907,538.994324 276.212219,538.986450 186.338623,539.080017 
	C184.585007,539.081848 182.832672,540.316101 180.836792,540.965942 
	C180.593842,540.956421 180.108047,540.934753 179.979965,540.551758 
	C173.888840,539.853516 167.925781,539.538269 161.506561,539.173340 
	C158.238358,539.301758 155.426315,539.479980 152.614273,539.658203 
z"/>
<path fill="#FCDD68" opacity="1.000000" stroke="none" 
	d="
M88.454010,326.222321 
	C88.454002,326.222321 88.011200,326.396942 87.496872,326.592133 
	C85.879211,327.497589 84.775871,328.207825 83.376694,328.998718 
	C82.764603,329.765167 82.448334,330.450989 82.132065,331.136810 
	C81.961060,331.416718 81.790054,331.696655 81.019463,332.024261 
	C76.293327,336.669067 72.166771,341.266144 68.040207,345.863251 
	C55.732212,336.984680 46.160126,325.459564 37.345608,313.342377 
	C19.072884,288.223083 7.745243,260.082520 4.349249,229.278152 
	C-1.482323,176.381180 12.490011,129.080811 47.132824,88.347260 
	C70.646088,60.700005 100.160347,42.078869 134.942383,32.016220 
	C155.861755,25.964123 177.218231,24.036570 199.067215,25.753271 
	C246.041168,29.444069 285.379852,48.794609 317.742676,82.563484 
	C334.391785,99.935974 346.872498,120.119820 354.995239,143.286743 
	C350.448334,142.934219 346.163910,141.678162 341.800751,141.275711 
	C334.227875,140.577225 326.606293,140.406631 318.974609,139.643982 
	C318.888824,138.779678 318.978882,138.206131 318.757538,137.803986 
	C308.054871,118.355858 294.396820,101.411095 276.702148,87.819885 
	C245.793243,64.078926 210.714005,54.192608 172.141510,57.217308 
	C160.853470,58.102467 149.446609,60.504150 138.642532,63.936676 
	C110.921646,72.743790 87.776054,88.732307 69.169823,111.207703 
	C49.210747,135.317276 37.560730,162.965271 35.168816,194.097031 
	C33.478340,216.099335 35.813660,237.788239 43.693138,258.745483 
	C52.594208,282.419861 66.542595,302.496704 85.122353,319.475342 
	C86.164406,320.427582 87.715210,320.823120 89.030670,321.790222 
	C89.008644,322.935364 88.985168,323.768066 88.874916,324.874268 
	C88.676765,325.505920 88.565392,325.864105 88.454010,326.222321 
z"/>
<path fill="#9EDBEF" opacity="1.000000" stroke="none" 
	d="
M319.005157,140.014679 
	C326.606293,140.406631 334.227875,140.577225 341.800751,141.275711 
	C346.163910,141.678162 350.448334,142.934219 355.152527,143.669846 
	C360.047455,145.672668 364.468140,148.033340 369.086395,149.907059 
	C380.647369,154.597656 392.377960,159.038483 402.222931,166.909668 
	C411.505066,174.330826 420.837585,181.805298 429.264923,190.148254 
	C438.656616,199.445923 446.422821,210.081558 452.252228,222.203171 
	C458.349365,234.881470 462.644165,247.979248 466.401123,261.516174 
	C469.188080,271.558014 468.320435,281.586121 469.761963,291.541351 
	C470.334106,295.492554 471.915344,296.778076 475.743225,297.197937 
	C485.248962,298.240417 495.101440,298.528046 504.086975,301.397522 
	C521.945496,307.100525 538.660400,315.206085 552.429382,328.756714 
	C562.665527,338.830566 571.848267,349.660828 578.911926,362.007996 
	C582.988464,369.133820 585.734497,377.249054 587.784790,385.250671 
	C590.639709,396.392426 593.139648,407.771393 594.118835,419.192230 
	C594.697937,425.946259 592.052124,432.976776 590.505005,439.996399 
	C590.097473,435.716522 590.041565,431.323242 590.270935,426.233459 
	C592.222534,422.253662 592.487000,419.049286 590.019043,415.998779 
	C589.954468,411.019745 589.889893,406.040680 589.831177,400.279053 
	C589.266785,398.963470 588.696594,398.430481 588.126404,397.897522 
	C585.587708,389.273407 583.157654,380.614624 580.425781,372.052155 
	C579.822266,370.160522 578.150085,368.609833 576.599854,366.441711 
	C574.219116,362.283722 572.208557,358.586212 570.032471,354.581055 
	C567.668335,350.661774 566.015381,346.526978 563.158203,343.546448 
	C557.054749,337.179260 550.474548,331.239288 543.785034,325.477936 
	C541.035583,323.110016 537.500366,321.654510 534.322571,319.783966 
	C532.209412,317.834076 530.414429,314.980682 527.923523,314.103241 
	C520.390320,311.449799 513.938965,305.922852 505.474243,305.681793 
	C503.980164,305.639221 502.519318,304.429260 500.368774,303.451904 
	C495.132996,302.770630 490.571564,302.395813 486.010101,302.020996 
	C480.317139,300.693085 474.624207,299.365204 468.489014,297.595947 
	C467.414093,292.735901 466.781403,288.317261 466.148712,283.898590 
	C465.412262,275.668823 465.069855,267.375275 463.752686,259.239532 
	C463.196320,255.802948 460.587402,252.698669 459.502228,249.361267 
	C459.048370,247.378784 458.779755,245.330307 458.101990,243.427551 
	C456.704712,239.504868 454.479584,235.779388 453.691650,231.757904 
	C452.112427,223.698090 446.829285,217.876373 442.305969,210.830200 
	C441.056213,209.430252 440.115692,208.577637 439.175171,207.725006 
	C437.461823,204.981094 436.027222,202.007523 433.987732,199.532288 
	C424.182953,187.632416 413.135284,177.037491 399.961731,168.892212 
	C392.423889,164.231537 384.890594,159.453140 376.915680,155.649307 
	C371.768890,153.194427 365.791962,152.519684 360.254242,150.827377 
	C357.640015,150.028442 355.272522,148.259781 352.634003,147.741989 
	C348.993774,147.027618 345.186981,147.214035 341.480896,146.769653 
	C337.294434,146.267639 333.140564,145.494110 328.125336,144.706268 
	C320.171661,144.689468 313.065155,144.805069 305.958649,144.920654 
	C300.796570,145.694519 295.634521,146.468384 289.743774,147.518616 
	C285.656738,148.147964 282.298431,148.500946 278.940094,148.853912 
	C274.892303,149.569336 270.844543,150.284744 266.382507,150.627014 
	C266.031433,149.348724 266.094604,148.443588 266.474121,147.558167 
	C267.211975,147.563187 267.633453,147.548508 268.301453,147.744614 
	C269.960327,147.215576 271.372681,146.475754 273.098053,145.577454 
	C275.541870,144.863815 277.672699,144.308685 280.222839,143.898926 
	C289.316071,142.836456 297.990112,141.629837 306.662170,140.409164 
	C306.795502,140.390427 306.904449,140.198196 307.483154,140.118073 
	C311.629395,140.104385 315.317291,140.059525 319.005157,140.014679 
z"/>
<path fill="#48CCF8" opacity="1.000000" stroke="none" 
	d="
M181.079742,540.975403 
	C182.832672,540.316101 184.585007,539.081848 186.338623,539.080017 
	C276.212219,538.986450 366.085907,538.994324 455.959595,539.027832 
	C457.414520,539.028320 458.869293,539.478577 460.683350,540.209473 
	C461.013275,541.126587 460.984039,541.553101 460.923859,542.167847 
	C460.892914,542.355957 460.943878,542.733826 460.943878,542.733765 
	C459.785065,542.821045 458.626251,542.984802 457.467438,542.984680 
	C365.957642,542.976135 274.447815,542.954712 182.381012,542.637451 
	C181.575928,541.885559 181.327835,541.430481 181.079742,540.975403 
z"/>
<path fill="#9EDBEF" opacity="1.000000" stroke="none" 
	d="
M585.855408,454.898224 
	C585.890137,454.476715 585.924927,454.055206 586.227783,453.140442 
	C586.607483,452.059662 586.719055,451.472137 586.830688,450.884613 
	C586.920837,449.882385 587.010986,448.880188 587.465515,447.409332 
	C588.192932,445.939850 588.556030,444.938995 588.919006,443.938110 
	C588.938599,443.507996 588.958252,443.077911 589.305786,442.317078 
	C589.843933,441.977966 590.054260,441.969604 590.264587,441.961212 
	C589.784546,445.705933 589.982361,449.704987 588.691528,453.145477 
	C585.412231,461.885376 581.895203,470.595245 577.639526,478.889282 
	C574.701843,484.614685 570.373779,489.626617 566.313110,494.955322 
	C567.128845,492.318878 568.203979,489.637512 569.485291,487.058563 
	C573.992798,477.985962 578.571045,468.948517 583.481445,459.425720 
	C584.512085,457.601898 585.183716,456.250061 585.855408,454.898224 
z"/>
<path fill="#36C1EF" opacity="1.000000" stroke="none" 
	d="
M68.981239,485.997253 
	C72.424088,488.982208 76.960312,491.359680 79.039604,495.102203 
	C81.785385,500.044342 85.944168,503.202087 89.506073,507.138855 
	C90.679916,508.436249 90.624268,510.846039 90.572121,512.627075 
	C89.394997,512.289978 88.776550,512.073120 88.158112,511.856201 
	C84.603020,508.200867 80.977440,504.610413 77.525551,500.860107 
	C76.025055,499.229889 74.881577,497.271057 73.293701,494.968689 
	C71.529076,492.556183 70.046677,490.636536 68.566071,488.650818 
	C68.567863,488.584717 68.444649,488.536713 68.574409,488.183472 
	C68.737091,487.581451 68.770004,487.332733 68.865295,486.815216 
	C68.945526,486.363373 68.963387,486.180328 68.981239,485.997253 
z"/>
<path fill="#9EDBEF" opacity="1.000000" stroke="none" 
	d="
M180.836792,540.965942 
	C181.327835,541.430481 181.575928,541.885559 181.915634,542.584778 
	C172.726822,542.461975 163.445450,542.114197 154.168686,541.670166 
	C153.714050,541.648499 153.299667,540.785400 152.740402,539.986145 
	C155.426315,539.479980 158.238358,539.301758 161.628113,539.539917 
	C168.173248,540.282410 174.140640,540.608582 180.108047,540.934753 
	C180.108047,540.934753 180.593842,540.956421 180.836792,540.965942 
z"/>
<path fill="#21C1F0" opacity="1.000000" stroke="none" 
	d="
M48.978165,422.995026 
	C49.859203,423.300598 51.518513,423.640228 51.506859,423.906769 
	C51.250484,429.768433 50.808914,435.621948 49.820488,441.744080 
	C48.990170,442.006470 48.742100,442.001831 48.494034,441.997192 
	C48.325752,436.632935 48.157471,431.268646 48.232365,425.314850 
	C48.643082,424.148560 48.810619,423.571777 48.978165,422.995026 
z"/>
<path fill="#9EDBEF" opacity="1.000000" stroke="none" 
	d="
M461.214722,543.065674 
	C460.943878,542.733826 460.892914,542.355957 461.390686,542.175293 
	C464.507568,541.991577 467.188843,542.340332 469.729248,541.891541 
	C472.566711,541.390259 475.276306,540.165161 478.041565,539.255127 
	C480.196808,539.250793 482.352051,539.246399 484.944702,539.445923 
	C481.878540,541.003357 478.469818,543.022949 474.846893,543.539001 
	C470.488281,544.159851 465.947510,543.501892 461.214722,543.065674 
z"/>
<path fill="#1DC1F2" opacity="1.000000" stroke="none" 
	d="
M48.718948,396.403931 
	C48.994614,395.965393 49.157635,395.988220 49.320805,395.989380 
	C52.810528,396.013672 52.416798,398.821350 51.892574,400.563324 
	C50.665333,404.641357 55.294403,409.973022 48.785080,412.570953 
	C48.153927,411.427063 48.000626,410.665985 47.847324,409.904938 
	C48.100342,405.555023 48.353359,401.205109 48.718948,396.403931 
z"/>
<path fill="#D6D273" opacity="1.000000" stroke="none" 
	d="
M68.100906,346.116516 
	C72.166771,341.266144 76.293327,336.669067 80.778366,332.101318 
	C77.413284,337.081665 73.689713,342.032684 69.423386,347.003448 
	C68.695496,346.970276 68.510353,346.917328 68.325203,346.864349 
	C68.270676,346.699524 68.216141,346.534668 68.100906,346.116516 
z"/>
<path fill="#9EDBEF" opacity="1.000000" stroke="none" 
	d="
M68.133904,347.175476 
	C68.510353,346.917328 68.695496,346.970276 69.132874,347.170166 
	C69.254280,348.279510 69.123436,349.241821 68.604370,350.623291 
	C67.499359,352.053253 66.782562,353.064087 66.065765,354.074921 
	C66.016586,354.483185 65.967407,354.891479 65.550385,355.668823 
	C64.457108,357.027924 63.731689,358.017975 63.006268,359.008026 
	C62.960957,359.427277 62.915649,359.846558 62.518639,360.643890 
	C61.442520,361.739410 60.718105,362.456818 59.993690,363.174255 
	C59.993694,363.174255 59.567940,363.162567 59.365501,363.099274 
	C59.718456,361.492157 60.043068,359.809235 60.873718,358.431335 
	C63.114819,354.713654 65.571487,351.125885 68.133904,347.175476 
z"/>
<path fill="#9EDBEF" opacity="1.000000" stroke="none" 
	d="
M68.802925,487.083984 
	C68.770004,487.332733 68.737091,487.581451 68.552933,488.209412 
	C68.401695,488.588623 68.347145,488.706146 68.227371,488.808594 
	C68.107597,488.911011 67.868607,489.116547 67.868607,489.116547 
	C64.740875,484.202362 61.613140,479.288177 58.765312,474.186279 
	C61.281857,477.112061 63.518486,480.225586 65.908463,483.989563 
	C66.975517,485.454651 67.889221,486.269318 68.802925,487.083984 
z"/>
<path fill="#9EDBEF" opacity="1.000000" stroke="none" 
	d="
M47.493706,410.011292 
	C48.000626,410.665985 48.153927,411.427063 48.392830,412.569885 
	C48.618382,416.019043 48.758327,419.086395 48.938217,422.574402 
	C48.810619,423.571777 48.643082,424.148560 48.206261,424.868103 
	C43.939503,420.246155 45.414906,415.188599 47.493706,410.011292 
z"/>
<path fill="#9EDBEF" opacity="1.000000" stroke="none" 
	d="
M512.060364,532.293030 
	C515.828369,531.189453 519.596375,530.085938 523.753296,529.081604 
	C523.639709,530.017456 523.322083,531.338135 522.604736,531.612122 
	C517.946411,533.391296 513.201111,534.942810 508.415710,536.059753 
	C509.584869,534.464722 510.822601,533.378845 512.060364,532.293030 
z"/>
<path fill="#9EDBEF" opacity="1.000000" stroke="none" 
	d="
M542.965149,516.938293 
	C543.526245,516.442078 544.087341,515.945862 545.160767,515.192749 
	C546.793579,513.668579 547.914001,512.401184 549.034424,511.133820 
	C550.748596,510.067474 552.462830,509.001190 554.514648,507.908112 
	C551.123535,511.540863 547.394775,515.200378 543.324097,518.540894 
	C542.976501,517.794067 542.970825,517.366150 542.965149,516.938293 
z"/>
<path fill="#9EDBEF" opacity="1.000000" stroke="none" 
	d="
M48.187675,442.068024 
	C48.742100,442.001831 48.990170,442.006470 49.604179,442.078796 
	C50.308315,443.177216 50.646515,444.207947 51.010830,445.941528 
	C51.361515,447.761841 51.686085,448.879303 52.010654,449.996735 
	C52.011143,451.756805 52.011635,453.516846 51.911800,455.710815 
	C50.501423,451.476074 49.191368,446.807465 48.187675,442.068024 
z"/>
<path fill="#9EDBEF" opacity="1.000000" stroke="none" 
	d="
M488.905273,539.815186 
	C490.109833,539.289307 491.506439,539.067322 493.710205,538.865112 
	C496.685913,537.898865 498.854492,536.912903 501.023102,535.926941 
	C502.100311,535.916626 503.177490,535.906372 504.651978,535.977661 
	C500.477631,540.342468 495.068634,541.335510 488.905273,539.815186 
z"/>
<path fill="#9EDBEF" opacity="1.000000" stroke="none" 
	d="
M52.823090,384.495850 
	C51.566536,387.876892 50.309982,391.257935 48.770039,394.939178 
	C48.145111,394.304260 47.326042,393.235199 47.544304,392.457123 
	C48.513367,389.002747 49.779827,385.631775 51.572472,382.115143 
	C52.410568,382.029449 52.614914,382.059235 52.819263,382.089020 
	C52.808846,382.606354 52.798428,383.123688 52.815208,384.048401 
	C52.842407,384.455780 52.823090,384.495850 52.823090,384.495850 
z"/>
<path fill="#9EDBEF" opacity="1.000000" stroke="none" 
	d="
M91.179359,515.184143 
	C94.426514,516.815613 97.630806,518.801392 100.953362,521.166016 
	C100.010399,521.631958 98.572693,522.202271 97.954468,521.720703 
	C95.541016,519.840698 93.386986,517.627625 91.179359,515.184143 
z"/>
<path fill="#9EDBEF" opacity="1.000000" stroke="none" 
	d="
M117.352356,531.092041 
	C121.259155,532.170593 125.076134,533.612488 128.959656,535.402283 
	C125.104980,534.318604 121.183762,532.887024 117.352356,531.092041 
z"/>
<path fill="#9EDBEF" opacity="1.000000" stroke="none" 
	d="
M132.969574,536.469482 
	C135.231415,536.836731 137.581879,537.522888 139.977173,538.583618 
	C136.815109,541.077148 135.072311,538.497375 132.969574,536.469482 
z"/>
<path fill="#9EDBEF" opacity="1.000000" stroke="none" 
	d="
M54.969597,466.120972 
	C55.263828,465.949677 55.651989,465.886719 55.860855,466.260864 
	C57.008957,467.444550 57.948185,468.254089 58.887413,469.063660 
	C58.924721,469.841858 58.962025,470.620056 58.901817,471.778900 
	C57.427998,470.203766 56.051682,468.248016 54.969597,466.120972 
z"/>
<path fill="#9EDBEF" opacity="1.000000" stroke="none" 
	d="
M68.564285,488.716888 
	C70.046677,490.636536 71.529076,492.556183 72.983887,494.851685 
	C71.286339,493.423401 69.616364,491.619232 67.907494,489.465820 
	C67.868607,489.116547 68.107597,488.911011 68.278076,488.813721 
	C68.448563,488.716431 68.564278,488.716888 68.564285,488.716888 
z"/>
<path fill="#9EDBEF" opacity="1.000000" stroke="none" 
	d="
M528.058777,528.670715 
	C528.863037,527.349609 530.013184,526.150940 531.874390,524.999268 
	C532.815918,525.097717 533.046387,525.149231 533.276855,525.200806 
	C531.652771,526.398254 530.028687,527.595703 528.058777,528.670715 
z"/>
<path fill="#8AD7F3" opacity="1.000000" stroke="none" 
	d="
M542.606323,516.957153 
	C542.970825,517.366150 542.976501,517.794067 542.976868,518.540161 
	C542.190918,519.501343 541.410217,520.144287 539.988464,520.894348 
	C538.857849,520.974792 538.368408,520.948242 537.878906,520.921631 
	C539.335083,519.606445 540.791260,518.291199 542.606323,516.957153 
z"/>
<path fill="#9EDBEF" opacity="1.000000" stroke="none" 
	d="
M141.992508,539.511047 
	C144.051865,539.186035 146.232285,539.202942 148.859161,539.386475 
	C146.908264,539.653076 144.510925,539.752991 141.992508,539.511047 
z"/>
<path fill="#9EDBEF" opacity="1.000000" stroke="none" 
	d="
M54.596607,374.993164 
	C54.978634,375.692749 55.043697,376.458588 54.793289,377.742035 
	C53.982391,379.169495 53.486969,380.079315 52.991543,380.989136 
	C52.991543,380.989136 53.000000,381.000000 52.706520,380.981079 
	C52.221935,380.940643 52.030827,380.919098 51.839722,380.897552 
	C52.653030,378.951508 53.466339,377.005432 54.596607,374.993164 
z"/>
<path fill="#8AD7F3" opacity="1.000000" stroke="none" 
	d="
M511.707397,532.241333 
	C510.822601,533.378845 509.584869,534.464722 508.149475,535.828430 
	C507.504364,536.108337 507.056824,536.110413 506.285095,536.020813 
	C507.758698,534.682678 509.556580,533.436218 511.707397,532.241333 
z"/>
<path fill="#9EDBEF" opacity="1.000000" stroke="none" 
	d="
M555.570190,507.165161 
	C556.445374,505.764862 557.670959,504.335999 559.198120,502.807831 
	C558.306641,504.184570 557.113647,505.660583 555.570190,507.165161 
z"/>
<path fill="#8AD7F3" opacity="1.000000" stroke="none" 
	d="
M533.563416,525.126831 
	C533.046387,525.149231 532.815918,525.097717 532.235229,524.986633 
	C533.348022,523.616150 534.811035,522.305298 536.529663,521.261108 
	C536.525024,522.036194 536.264709,522.544678 536.004456,523.053162 
	C535.286316,523.719727 534.568176,524.386353 533.563416,525.126831 
z"/>
<path fill="#9EDBEF" opacity="1.000000" stroke="none" 
	d="
M51.875053,458.147705 
	C53.098545,459.152771 54.048550,460.303802 54.897629,461.807800 
	C53.731655,460.871765 52.666607,459.582733 51.875053,458.147705 
z"/>
<path fill="#9EDBEF" opacity="1.000000" stroke="none" 
	d="
M536.374146,523.040955 
	C536.264709,522.544678 536.525024,522.036194 536.892639,521.262329 
	C537.000000,520.996887 537.439697,520.949402 537.659302,520.935547 
	C538.368408,520.948242 538.857849,520.974792 539.714722,521.022949 
	C538.969360,521.705872 537.856628,522.367310 536.374146,523.040955 
z"/>
<path fill="#9EDBEF" opacity="1.000000" stroke="none" 
	d="
M106.022354,525.413208 
	C107.230270,525.461060 108.513123,525.858215 109.923500,526.584229 
	C108.733109,526.529541 107.415199,526.146057 106.022354,525.413208 
z"/>
<path fill="#9EDBEF" opacity="1.000000" stroke="none" 
	d="
M561.060913,501.618530 
	C561.239563,500.723419 561.771729,499.938995 562.571838,499.033508 
	C562.364685,499.851410 561.889587,500.790314 561.060913,501.618530 
z"/>
<path fill="#9EDBEF" opacity="1.000000" stroke="none" 
	d="
M55.777618,369.070068 
	C55.956295,369.623596 55.832558,370.150391 55.479691,370.831055 
	C55.325439,370.337738 55.400322,369.690552 55.777618,369.070068 
z"/>
<path fill="#6FCBF0" opacity="1.000000" stroke="none" 
	d="
M590.242615,441.627258 
	C590.054260,441.969604 589.843933,441.977966 589.317993,441.994385 
	C589.130859,441.342468 589.259216,440.682526 589.679688,440.003143 
	C590.054749,440.420227 590.137695,440.856750 590.242615,441.627258 
z"/>
<path fill="#9EDBEF" opacity="1.000000" stroke="none" 
	d="
M88.135574,512.200745 
	C88.776550,512.073120 89.394997,512.289978 90.257942,512.744751 
	C90.502449,512.982666 90.322426,513.385742 90.252930,513.593628 
	C89.493309,513.382812 88.803169,512.964050 88.135574,512.200745 
z"/>
<path fill="#7AD1EF" opacity="1.000000" stroke="none" 
	d="
M51.783020,381.155914 
	C52.030827,380.919098 52.221935,380.940643 52.701050,380.976715 
	C52.980152,381.176758 52.971249,381.362305 52.890808,381.818420 
	C52.614914,382.059235 52.410568,382.029449 51.896366,381.962036 
	C51.633114,381.754395 51.679718,381.584351 51.783020,381.155914 
z"/>
<path fill="#D6D273" opacity="1.000000" stroke="none" 
	d="
M266.157745,147.538467 
	C266.094604,148.443588 266.031433,149.348724 265.926910,150.595840 
	C265.402924,151.153687 264.920258,151.369537 263.805603,151.687775 
	C261.750458,152.540100 260.327301,153.290054 258.584045,154.111496 
	C257.301636,155.044235 256.339386,155.905502 255.377106,156.766754 
	C254.519073,156.844147 253.661041,156.921539 252.113464,157.042938 
	C249.158264,158.528610 246.892609,159.970245 244.626953,161.411865 
	C243.528076,161.727753 242.429230,162.043655 240.722656,162.645050 
	C238.816406,163.619522 237.387848,164.140167 236.241440,165.025970 
	C230.749908,169.269257 225.334778,173.611374 219.892487,177.918365 
	C219.630966,178.089142 219.403839,178.297409 218.742554,178.763580 
	C216.533081,180.680298 214.792175,182.376617 213.051270,184.072937 
	C211.252380,185.973969 209.453491,187.875015 207.024780,189.992172 
	C204.915634,192.122101 203.436310,194.035934 201.956985,195.949753 
	C201.956985,195.949753 201.999100,195.998169 201.652985,195.998657 
	C200.596252,196.702774 199.885666,197.406403 199.175064,198.110016 
	C199.052063,198.470734 198.929077,198.831451 198.418671,199.562347 
	C197.327408,200.926163 196.623581,201.919815 195.919739,202.913467 
	C195.810928,203.297760 195.702103,203.682037 195.233109,204.477509 
	C193.961182,205.958649 193.049438,207.028595 192.137695,208.098557 
	C192.020676,208.460892 191.903641,208.823227 191.407013,209.568848 
	C190.350449,210.965759 189.673462,211.979370 188.996460,212.992981 
	C188.629227,214.038925 188.261993,215.084869 187.483490,216.536957 
	C186.397247,217.970657 185.722305,218.998215 185.047333,220.025757 
	C184.724380,220.807373 184.401443,221.588989 183.688171,222.813782 
	C180.645813,228.545563 177.491196,233.648865 175.457382,239.165375 
	C172.260742,247.835907 169.244568,256.656006 167.227417,265.653900 
	C165.387589,273.860901 165.128571,282.412445 163.801788,290.753113 
	C163.553741,292.312378 161.821838,294.210693 160.303436,294.874298 
	C157.037643,296.301666 153.464996,297.026947 149.581772,298.045471 
	C146.848526,298.163605 144.551468,298.275940 141.872253,298.256683 
	C138.984787,299.104034 136.479462,300.082947 133.974136,301.061890 
	C132.256607,301.353790 130.539062,301.645660 128.119537,302.002808 
	C125.942947,303.034760 124.468338,304.001404 122.993744,304.968048 
	C121.411064,305.399323 119.828392,305.830627 117.657516,306.570557 
	C115.592819,307.699005 114.116325,308.518829 112.639832,309.338654 
	C112.476593,309.397919 112.313370,309.457153 111.584854,309.702881 
	C103.666939,314.793243 96.314316,319.697021 88.961685,324.600800 
	C88.985168,323.768066 89.008644,322.935364 89.310738,321.557281 
	C101.167122,309.743561 115.959427,303.779877 130.348831,297.614716 
	C137.740204,294.447845 146.503479,294.293243 154.708710,293.277557 
	C160.919617,292.508728 161.932861,291.703461 162.183350,285.302826 
	C162.357620,280.850555 162.699280,276.381073 163.361435,271.978699 
	C163.971207,267.924530 165.080612,263.943115 166.020584,259.941559 
	C167.314087,254.434875 168.115082,248.733337 170.114441,243.491913 
	C172.546112,237.117126 175.967331,231.115433 179.026443,224.985245 
	C185.428864,212.155350 193.458115,200.349075 203.089203,189.806366 
	C217.972626,173.514175 235.308197,160.410355 255.872009,151.914520 
	C259.315491,150.491867 262.729889,148.998917 266.157745,147.538467 
z"/>
<path fill="#8ECBC0" opacity="1.000000" stroke="none" 
	d="
M150.017944,298.039612 
	C153.464996,297.026947 157.037643,296.301666 160.303436,294.874298 
	C161.821838,294.210693 163.553741,292.312378 163.801788,290.753113 
	C165.128571,282.412445 165.387589,273.860901 167.227417,265.653900 
	C169.244568,256.656006 172.260742,247.835907 175.457382,239.165375 
	C177.491196,233.648865 180.645813,228.545563 183.617325,223.123322 
	C182.721436,226.301743 181.479874,229.604477 180.295898,232.927704 
	C177.484695,240.818405 174.771149,248.744629 171.888000,256.608795 
	C168.302002,266.390015 168.230148,276.584930 167.705658,286.797760 
	C167.505035,290.704498 166.720901,295.159607 161.737473,297.644775 
	C157.419296,297.969818 153.718613,298.004700 150.017944,298.039612 
z"/>
<path fill="#3AC1EE" opacity="1.000000" stroke="none" 
	d="
M533.948669,319.855255 
	C537.500366,321.654510 541.035583,323.110016 543.785034,325.477936 
	C550.474548,331.239288 557.054749,337.179260 563.158203,343.546448 
	C566.015381,346.526978 567.668335,350.661774 569.778198,354.706177 
	C569.458740,355.426361 569.228149,355.713806 568.997559,356.001221 
	C566.703186,353.297455 564.526245,350.482178 562.089172,347.913849 
	C557.447266,343.021881 552.946594,337.932465 547.842773,333.560730 
	C543.151184,329.542053 537.710999,326.404572 532.666382,322.787231 
	C530.371460,321.141571 531.108521,320.195374 533.948669,319.855255 
z"/>
<path fill="#27BDEC" opacity="1.000000" stroke="none" 
	d="
M305.989197,145.343536 
	C313.065155,144.805069 320.171661,144.689468 327.672089,144.719879 
	C327.313690,145.899597 326.598724,147.794952 325.803101,147.829422 
	C319.913696,148.084686 314.006134,148.044556 308.110718,147.873596 
	C307.393951,147.852798 306.715790,146.501251 305.989197,145.343536 
z"/>
<path fill="#2BBFEE" opacity="1.000000" stroke="none" 
	d="
M149.581772,298.045441 
	C153.718613,298.004700 157.419296,297.969818 161.528717,297.916321 
	C163.738510,299.759491 164.783066,301.566315 160.966568,301.936310 
	C156.087082,302.409363 151.185913,302.847412 146.292282,302.868011 
	C144.871658,302.873993 143.444809,301.398621 142.011063,299.969849 
	C142.117996,299.029602 142.202362,298.713226 142.254395,298.388275 
	C144.551468,298.275940 146.848526,298.163605 149.581772,298.045441 
z"/>
<path fill="#8ECBC0" opacity="1.000000" stroke="none" 
	d="
M88.874924,324.874268 
	C96.314316,319.697021 103.666939,314.793243 111.352638,309.820862 
	C111.255310,310.726257 111.097198,312.078705 110.351845,312.614929 
	C103.825195,317.310394 97.199677,321.868774 90.576530,326.428650 
	C90.224121,326.671265 89.628983,326.561310 88.800430,326.418915 
	C88.565392,325.864105 88.676765,325.505920 88.874924,324.874268 
z"/>
<path fill="#2BBFEE" opacity="1.000000" stroke="none" 
	d="
M278.975037,149.279007 
	C282.298431,148.500946 285.656738,148.147964 289.449402,147.761444 
	C291.401825,148.436996 292.919891,149.146103 294.437958,149.855209 
	C294.454010,150.179108 294.470093,150.503021 294.486176,150.826920 
	C290.023315,151.205048 285.564270,151.682953 281.093536,151.853104 
	C280.427246,151.878448 279.705872,150.456497 278.975037,149.279007 
z"/>
<path fill="#8ECBC0" opacity="1.000000" stroke="none" 
	d="
M220.253906,177.919861 
	C225.334778,173.611374 230.749908,169.269257 236.241440,165.025970 
	C237.387848,164.140167 238.816406,163.619522 240.456085,162.863770 
	C239.168457,164.335602 237.685257,166.076370 235.883072,167.374222 
	C230.864624,170.988266 225.713837,174.418533 220.253906,177.919861 
z"/>
<path fill="#33C0ED" opacity="1.000000" stroke="none" 
	d="
M568.997742,356.411774 
	C569.228149,355.713806 569.458740,355.426361 569.943604,355.013794 
	C572.208557,358.586212 574.219116,362.283722 576.254883,366.359650 
	C575.059387,366.783997 572.949646,367.232208 572.759521,366.811981 
	C571.296021,363.576935 570.204712,360.173492 568.997742,356.411774 
z"/>
<path fill="#26C1F1" opacity="1.000000" stroke="none" 
	d="
M486.026978,302.423279 
	C490.571564,302.395813 495.132996,302.770630 499.988098,303.413513 
	C500.166107,303.992340 500.141449,304.410065 499.920990,304.597565 
	C497.138947,306.963470 488.424438,305.834106 486.026978,302.423279 
z"/>
<path fill="#24BCEC" opacity="1.000000" stroke="none" 
	d="
M465.764099,283.996155 
	C466.781403,288.317261 467.414093,292.735901 468.102539,297.561646 
	C466.751862,296.814636 464.203857,295.705811 464.155914,294.497742 
	C464.019043,291.051361 464.899384,287.564606 465.764099,283.996155 
z"/>
<path fill="#8AD7F3" opacity="1.000000" stroke="none" 
	d="
M179.979965,540.551758 
	C174.140640,540.608582 168.173248,540.282410 162.084290,539.589661 
	C167.925781,539.538269 173.888840,539.853516 179.979965,540.551758 
z"/>
<path fill="#8AD7F3" opacity="1.000000" stroke="none" 
	d="
M477.610168,539.179199 
	C475.276306,540.165161 472.566711,541.390259 469.729248,541.891541 
	C467.188843,542.340332 464.507568,541.991577 461.421631,541.987183 
	C460.984039,541.553101 461.013275,541.126587 461.072845,540.381592 
	C466.461670,539.743164 471.820221,539.423279 477.610168,539.179199 
z"/>
<path fill="#25C0EB" opacity="1.000000" stroke="none" 
	d="
M255.754974,156.954437 
	C256.339386,155.905502 257.301636,155.044235 258.947449,154.179947 
	C261.057617,154.350128 262.484222,154.523361 263.910858,154.696594 
	C263.212219,159.701920 260.693024,160.493988 255.754974,156.954437 
z"/>
<path fill="#8ECBC0" opacity="1.000000" stroke="none" 
	d="
M141.872253,298.256683 
	C142.202362,298.713226 142.117996,299.029602 141.936203,299.573700 
	C139.396378,300.401123 136.921661,300.992188 134.210541,301.322571 
	C136.479462,300.082947 138.984787,299.104034 141.872253,298.256683 
z"/>
<path fill="#6FCBF0" opacity="1.000000" stroke="none" 
	d="
M589.760376,416.227844 
	C592.487000,419.049286 592.222534,422.253662 590.278137,425.768494 
	C589.833923,422.818970 589.667786,419.637970 589.760376,416.227844 
z"/>
<path fill="#8ECBC0" opacity="1.000000" stroke="none" 
	d="
M244.964691,161.558441 
	C246.892609,159.970245 249.158264,158.528610 251.797668,157.136520 
	C249.881744,158.692383 247.592072,160.198700 244.964691,161.558441 
z"/>
<path fill="#8AD7F3" opacity="1.000000" stroke="none" 
	d="
M500.785950,535.692261 
	C498.854492,536.912903 496.685913,537.898865 494.134644,538.856689 
	C496.017578,537.704773 498.283203,536.581177 500.785950,535.692261 
z"/>
<path fill="#8ECBC0" opacity="1.000000" stroke="none" 
	d="
M202.308319,195.938446 
	C203.436310,194.035934 204.915634,192.122101 206.722687,190.122910 
	C205.586838,192.000748 204.123230,193.963943 202.308319,195.938446 
z"/>
<path fill="#8ECBC0" opacity="1.000000" stroke="none" 
	d="
M213.410767,184.063263 
	C214.792175,182.376617 216.533081,180.680298 218.614182,178.956757 
	C217.226318,180.637558 215.498276,182.345566 213.410767,184.063263 
z"/>
<path fill="#9EDBEF" opacity="1.000000" stroke="none" 
	d="
M263.904053,154.340942 
	C262.484222,154.523361 261.057617,154.350128 259.267578,154.108459 
	C260.327301,153.290054 261.750458,152.540100 263.566742,151.803925 
	C263.938995,152.540237 263.918091,153.262772 263.904053,154.340942 
z"/>
<path fill="#8ECBC0" opacity="1.000000" stroke="none" 
	d="
M123.191498,305.229492 
	C124.468338,304.001404 125.942947,303.034760 127.762100,302.111908 
	C126.534187,303.267456 124.961723,304.379181 123.191498,305.229492 
z"/>
<path fill="#8AD7F3" opacity="1.000000" stroke="none" 
	d="
M548.692139,511.132019 
	C547.914001,512.401184 546.793579,513.668579 545.331787,514.965942 
	C546.110229,513.707397 547.230042,512.418823 548.692139,511.132019 
z"/>
<path fill="#8ECBC0" opacity="1.000000" stroke="none" 
	d="
M113.007629,309.511963 
	C114.116325,308.518829 115.592819,307.699005 117.393005,306.807129 
	C116.269600,307.718475 114.822517,308.701874 113.007629,309.511963 
z"/>
<path fill="#8ECBC0" opacity="1.000000" stroke="none" 
	d="
M83.672531,328.918091 
	C84.775871,328.207825 85.879211,327.497589 87.300026,326.725891 
	C86.642242,327.776978 85.666985,328.889496 84.263054,329.718628 
	C83.780434,329.262848 83.726479,329.090454 83.672531,328.918091 
z"/>
<path fill="#6FCBF0" opacity="1.000000" stroke="none" 
	d="
M585.531555,454.985016 
	C585.183716,456.250061 584.512085,457.601898 583.525879,459.050354 
	C583.876709,457.788574 584.542175,456.430176 585.531555,454.985016 
z"/>
<path fill="#8ECBC0" opacity="1.000000" stroke="none" 
	d="
M192.497589,208.065674 
	C193.049438,207.028595 193.961182,205.958649 195.139221,204.761948 
	C194.556168,205.767731 193.706833,206.900269 192.497589,208.065674 
z"/>
<path fill="#52C5F0" opacity="1.000000" stroke="none" 
	d="
M439.126007,208.124054 
	C440.115692,208.577637 441.056213,209.430252 442.042480,210.618103 
	C441.084412,210.143250 440.080627,209.333176 439.126007,208.124054 
z"/>
<path fill="#7AD1EF" opacity="1.000000" stroke="none" 
	d="
M58.889297,468.721985 
	C57.948185,468.254089 57.008957,467.444550 56.054741,466.293518 
	C56.990234,466.761475 57.940708,467.570892 58.889297,468.721985 
z"/>
<path fill="#7AD1EF" opacity="1.000000" stroke="none" 
	d="
M66.397171,354.011169 
	C66.782562,353.064087 67.499359,352.053253 68.544792,350.986084 
	C68.158485,351.935638 67.443535,352.941498 66.397171,354.011169 
z"/>
<path fill="#7AD1EF" opacity="1.000000" stroke="none" 
	d="
M68.865295,486.815216 
	C67.889221,486.269318 66.975517,485.454651 66.045395,484.302155 
	C66.913986,484.455872 67.798996,484.947449 68.832626,485.718140 
	C68.963387,486.180328 68.945526,486.363373 68.865295,486.815216 
z"/>
<path fill="#7AD1EF" opacity="1.000000" stroke="none" 
	d="
M63.344769,358.963074 
	C63.731689,358.017975 64.457108,357.027924 65.502274,355.973511 
	C65.109100,356.912170 64.396187,357.915131 63.344769,358.963074 
z"/>
<path fill="#8ECBC0" opacity="1.000000" stroke="none" 
	d="
M196.277466,202.910858 
	C196.623581,201.919815 197.327408,200.926163 198.333420,199.835175 
	C197.968781,200.794617 197.301971,201.851425 196.277466,202.910858 
z"/>
<path fill="#7AD1EF" opacity="1.000000" stroke="none" 
	d="
M60.208572,363.378143 
	C60.718105,362.456818 61.442520,361.739410 62.470558,360.956573 
	C61.990608,361.788147 61.207035,362.685089 60.208572,363.378143 
z"/>
<path fill="#8ECBC0" opacity="1.000000" stroke="none" 
	d="
M189.349640,212.969299 
	C189.673462,211.979370 190.350449,210.965759 191.325317,209.842499 
	C190.983063,210.803757 190.342941,211.874680 189.349640,212.969299 
z"/>
<path fill="#8ECBC0" opacity="1.000000" stroke="none" 
	d="
M185.390778,219.983948 
	C185.722305,218.998215 186.397247,217.970657 187.385559,216.855774 
	C187.044022,217.826324 186.389114,218.884216 185.390778,219.983948 
z"/>
<path fill="#7AD1EF" opacity="1.000000" stroke="none" 
	d="
M53.311089,380.959839 
	C53.486969,380.079315 53.982391,379.169495 54.779110,378.127197 
	C54.597149,378.973328 54.113892,379.951965 53.311089,380.959839 
z"/>
<path fill="#7AD1EF" opacity="1.000000" stroke="none" 
	d="
M52.052464,449.669342 
	C51.686085,448.879303 51.361515,447.761841 51.069992,446.269135 
	C51.433449,447.043213 51.763859,448.192596 52.052464,449.669342 
z"/>
<path fill="#6FCBF0" opacity="1.000000" stroke="none" 
	d="
M588.578125,444.015991 
	C588.556030,444.938995 588.192932,445.939850 587.501953,447.033722 
	C587.528381,446.115784 587.882812,445.104797 588.578125,444.015991 
z"/>
<path fill="#8ECBC0" opacity="1.000000" stroke="none" 
	d="
M199.509750,198.078064 
	C199.885666,197.406403 200.596252,196.702774 201.628571,195.977982 
	C201.248352,196.653244 200.546387,197.349686 199.509750,198.078064 
z"/>
<path fill="#6FCBF0" opacity="1.000000" stroke="none" 
	d="
M588.121338,398.214050 
	C588.696594,398.430481 589.266785,398.963470 589.793457,399.823730 
	C589.205322,399.610870 588.660767,399.070709 588.121338,398.214050 
z"/>
<path fill="#D6D273" opacity="1.000000" stroke="none" 
	d="
M83.376694,328.998718 
	C83.726479,329.090454 83.780434,329.262848 83.888290,329.700623 
	C83.523262,330.329712 83.104309,330.693481 82.408707,331.097046 
	C82.448334,330.450989 82.764603,329.765167 83.376694,328.998718 
z"/>
<path fill="#6FCBF0" opacity="1.000000" stroke="none" 
	d="
M586.557922,450.950562 
	C586.719055,451.472137 586.607483,452.059662 586.243286,452.823608 
	C586.088867,452.338867 586.187012,451.677673 586.557922,450.950562 
z"/>
<path fill="#7AD1EF" opacity="1.000000" stroke="none" 
	d="
M52.947235,384.553955 
	C52.823090,384.495850 52.842407,384.455780 52.841789,384.435669 
	C52.841175,384.415558 53.204514,384.425110 53.204514,384.425110 
	C53.204514,384.425110 53.071384,384.612091 52.947235,384.553955 
z"/>
<path fill="#FBD00E" opacity="1.000000" stroke="none" 
	d="
M266.474121,147.558167 
	C262.729889,148.998917 259.315491,150.491867 255.872009,151.914520 
	C235.308197,160.410355 217.972626,173.514175 203.089203,189.806366 
	C193.458115,200.349075 185.428864,212.155350 179.026443,224.985245 
	C175.967331,231.115433 172.546112,237.117126 170.114441,243.491913 
	C168.115082,248.733337 167.314087,254.434875 166.020584,259.941559 
	C165.080612,263.943115 163.971207,267.924530 163.361435,271.978699 
	C162.699280,276.381073 162.357620,280.850555 162.183350,285.302826 
	C161.932861,291.703461 160.919617,292.508728 154.708710,293.277557 
	C146.503479,294.293243 137.740204,294.447845 130.348831,297.614716 
	C115.959427,303.779877 101.167122,309.743561 89.309296,321.244873 
	C87.715210,320.823120 86.164406,320.427582 85.122353,319.475342 
	C66.542595,302.496704 52.594208,282.419861 43.693138,258.745483 
	C35.813660,237.788239 33.478340,216.099335 35.168816,194.097031 
	C37.560730,162.965271 49.210747,135.317276 69.169823,111.207703 
	C87.776054,88.732307 110.921646,72.743790 138.642532,63.936676 
	C149.446609,60.504150 160.853470,58.102467 172.141510,57.217308 
	C210.714005,54.192608 245.793243,64.078926 276.702148,87.819885 
	C294.396820,101.411095 308.054871,118.355858 318.757538,137.803986 
	C318.978882,138.206131 318.888824,138.779678 318.974609,139.643967 
	C315.317291,140.059525 311.629395,140.104385 307.204712,139.801056 
	C301.560333,139.352524 296.559113,138.626129 291.773682,139.342117 
	C287.655792,139.958206 283.784058,142.219635 279.803497,143.753555 
	C277.672699,144.308685 275.541870,144.863815 272.791046,145.411285 
	C270.798981,146.113708 269.426971,146.823761 268.054932,147.533829 
	C267.633453,147.548508 267.211975,147.563187 266.474121,147.558167 
z"/>
<path fill="#FCDD68" opacity="1.000000" stroke="none" 
	d="
M280.222839,143.898926 
	C283.784058,142.219635 287.655792,139.958206 291.773682,139.342117 
	C296.559113,138.626129 301.560333,139.352524 306.746338,139.769897 
	C306.904449,140.198196 306.795502,140.390427 306.662170,140.409164 
	C297.990112,141.629837 289.316071,142.836456 280.222839,143.898926 
z"/>
<path fill="#D6D273" opacity="1.000000" stroke="none" 
	d="
M268.301453,147.744614 
	C269.426971,146.823761 270.798981,146.113708 272.478027,145.569794 
	C271.372681,146.475754 269.960327,147.215576 268.301453,147.744614 
z"/>
<path fill="#FEFFFF" opacity="1.000000" stroke="none" 
	d="
M68.566071,488.650818 
	C68.564278,488.716888 68.448563,488.716431 68.397858,488.711304 
	C68.347145,488.706146 68.401695,488.588623 68.423172,488.562683 
	C68.444649,488.536713 68.567863,488.584717 68.566071,488.650818 
z"/>
</svg>