<svg version="1.1" id="Layer_1" xmlns="http://www.w3.org/2000/svg" xmlns:xlink="http://www.w3.org/1999/xlink" x="0px" y="0px"
	 width="100%" viewBox="0 0 512 512" enable-background="new 0 0 512 512" xml:space="preserve">
<path fill="#FCDD66" opacity="1.000000" stroke="none" 
	d="
M235.000000,1.000000 
	C249.354233,1.000000 263.708466,1.000000 278.780273,1.336044 
	C292.011475,3.618972 304.671600,4.906780 317.008453,7.648925 
	C343.293457,13.491361 367.811432,23.957172 390.824402,37.946636 
	C415.536865,52.969208 436.894775,71.969803 455.311798,94.085793 
	C472.073425,114.213913 485.388275,136.595917 495.039276,161.064240 
	C502.930878,181.071960 508.660492,201.612930 511.063141,223.036575 
	C511.512848,227.046356 512.344543,231.013290 513.000000,235.000000 
	C513.000000,249.354233 513.000000,263.708466 512.663940,278.780273 
	C510.380981,292.011566 509.093079,304.671783 506.350983,317.008728 
	C500.508636,343.293732 490.042877,367.811768 476.053284,390.824585 
	C461.030609,415.536865 442.030334,436.895081 419.914185,455.311981 
	C399.785950,472.073425 377.404053,485.388367 352.935699,495.039276 
	C332.928009,502.930817 312.387085,508.660522 290.963440,511.063202 
	C286.953644,511.512878 282.986725,512.344604 279.000000,513.000000 
	C264.645782,513.000000 250.291550,513.000000 235.219727,512.663940 
	C221.988541,510.381073 209.328430,509.093262 196.991608,506.351105 
	C170.706635,500.508636 146.188644,490.042816 123.175659,476.053406 
	C98.463173,461.030853 77.105255,442.030182 58.688206,419.914246 
	C41.926559,399.786163 28.611706,377.404114 18.960760,352.935730 
	C11.069198,332.928009 5.339500,312.387085 2.936864,290.963409 
	C2.487176,286.953644 1.655435,282.986694 1.000001,279.000000 
	C1.000000,264.645782 1.000000,250.291550 1.336040,235.219742 
	C3.618982,221.988510 4.906826,209.328354 7.648961,196.991455 
	C13.491356,170.706451 23.957197,146.188477 37.946659,123.175529 
	C52.969234,98.463097 71.969856,77.105171 94.085831,58.688148 
	C114.213921,41.926529 136.595978,28.611723 161.064301,18.960743 
	C181.072021,11.069147 201.612961,5.339479 223.036606,2.936860 
	C227.046371,2.487172 231.013306,1.655432 235.000000,1.000000 
M223.647308,48.017723 
	C217.621445,49.235706 211.537109,50.219738 205.579041,51.709000 
	C161.325302,62.770573 124.434090,86.084320 95.194031,120.749313 
	C62.266830,159.785507 45.563389,205.362747 45.214397,256.543060 
	C45.078136,276.526398 47.875057,296.226074 53.581493,315.506073 
	C66.824432,360.249298 92.021431,396.690826 128.848221,425.211121 
	C151.829559,443.008850 177.525009,455.474884 205.596359,462.519104 
	C225.593094,467.537048 246.024948,469.429718 266.832672,468.350433 
	C285.598083,467.377106 303.873474,464.353210 321.582642,458.527740 
	C371.987183,441.947144 410.961914,410.708344 438.619781,365.442535 
	C456.863739,335.583862 466.529297,303.014526 467.985748,268.129944 
	C468.440399,257.240265 468.254944,246.171494 466.811371,235.392426 
	C464.879883,220.969513 462.675262,206.367371 458.403412,192.515915 
	C447.488007,157.122665 427.766663,127.042770 400.521698,101.811607 
	C381.846375,84.516663 360.824310,71.067726 337.438171,61.204262 
	C320.008209,53.852921 301.824982,49.218777 283.064087,47.155312 
	C272.681885,46.013397 262.187866,45.265850 251.756134,45.384586 
	C242.673340,45.487968 233.607208,47.057106 223.647308,48.017723 
z"/>
<path fill="#FFFFFF" opacity="1.000000" stroke="none" 
	d="
M234.531342,1.000000 
	C231.013306,1.655432 227.046371,2.487172 223.036606,2.936860 
	C201.612961,5.339479 181.072021,11.069147 161.064301,18.960743 
	C136.595978,28.611723 114.213921,41.926529 94.085831,58.688148 
	C71.969856,77.105171 52.969234,98.463097 37.946659,123.175529 
	C23.957197,146.188477 13.491356,170.706451 7.648961,196.991455 
	C4.906826,209.328354 3.618982,221.988510 1.336040,234.751083 
	C1.000000,157.072952 1.000000,79.145912 1.000000,1.000000 
	C78.687424,1.000000 156.375061,1.000000 234.531342,1.000000 
z"/>
<path fill="#FFFFFF" opacity="1.000000" stroke="none" 
	d="
M513.000000,234.531342 
	C512.344543,231.013290 511.512848,227.046356 511.063141,223.036575 
	C508.660492,201.612930 502.930878,181.071960 495.039276,161.064240 
	C485.388275,136.595917 472.073425,114.213913 455.311798,94.085793 
	C436.894775,71.969803 415.536865,52.969208 390.824402,37.946636 
	C367.811432,23.957172 343.293457,13.491361 317.008453,7.648925 
	C304.671600,4.906780 292.011475,3.618972 279.248932,1.336044 
	C356.927032,1.000000 434.854095,1.000000 513.000000,1.000000 
	C513.000000,78.687424 513.000000,156.375061 513.000000,234.531342 
z"/>
<path fill="#FFFFFF" opacity="1.000000" stroke="none" 
	d="
M1.000001,279.468658 
	C1.655435,282.986694 2.487176,286.953644 2.936864,290.963409 
	C5.339500,312.387085 11.069198,332.928009 18.960760,352.935730 
	C28.611706,377.404114 41.926559,399.786163 58.688206,419.914246 
	C77.105255,442.030182 98.463173,461.030853 123.175659,476.053406 
	C146.188644,490.042816 170.706635,500.508636 196.991608,506.351105 
	C209.328430,509.093262 221.988541,510.381073 234.751068,512.663940 
	C157.072968,513.000000 79.145927,513.000000 1.000000,513.000000 
	C1.000000,435.312561 1.000000,357.624939 1.000001,279.468658 
z"/>
<path fill="#FFFFFF" opacity="1.000000" stroke="none" 
	d="
M279.468658,513.000000 
	C282.986725,512.344604 286.953644,511.512878 290.963440,511.063202 
	C312.387085,508.660522 332.928009,502.930817 352.935699,495.039276 
	C377.404053,485.388367 399.785950,472.073425 419.914185,455.311981 
	C442.030334,436.895081 461.030609,415.536865 476.053284,390.824585 
	C490.042877,367.811768 500.508636,343.293732 506.350983,317.008728 
	C509.093079,304.671783 510.380981,292.011566 512.663940,279.248932 
	C513.000000,356.927032 513.000000,434.854095 513.000000,513.000000 
	C435.312561,513.000000 357.624939,513.000000 279.468658,513.000000 
z"/>
<path fill="#FBD009" opacity="1.000000" stroke="none" 
	d="
M224.090515,47.998138 
	C233.607208,47.057106 242.673340,45.487968 251.756134,45.384586 
	C262.187866,45.265850 272.681885,46.013397 283.064087,47.155312 
	C301.824982,49.218777 320.008209,53.852921 337.438171,61.204262 
	C360.824310,71.067726 381.846375,84.516663 400.521698,101.811607 
	C427.766663,127.042770 447.488007,157.122665 458.403412,192.515915 
	C462.675262,206.367371 464.879883,220.969513 466.811371,235.392426 
	C468.254944,246.171494 468.440399,257.240265 467.985748,268.129944 
	C466.529297,303.014526 456.863739,335.583862 438.619781,365.442535 
	C410.961914,410.708344 371.987183,441.947144 321.582642,458.527740 
	C303.873474,464.353210 285.598083,467.377106 266.832672,468.350433 
	C246.024948,469.429718 225.593094,467.537048 205.596359,462.519104 
	C177.525009,455.474884 151.829559,443.008850 128.848221,425.211121 
	C92.021431,396.690826 66.824432,360.249298 53.581493,315.506073 
	C47.875057,296.226074 45.078136,276.526398 45.214397,256.543060 
	C45.563389,205.362747 62.266830,159.785507 95.194031,120.749313 
	C124.434090,86.084320 161.325302,62.770573 205.579041,51.709000 
	C211.537109,50.219738 217.621445,49.235706 224.090515,47.998138 
z"/>
</svg>